<svg width="26" height="26" viewBox="0 0 26 26" fill="none" xmlns="http://www.w3.org/2000/svg">
<path d="M23.4031 11.7299C23.68 12.0782 23.8333 12.5308 23.8333 13.0001C23.8333 13.4694 23.68 13.922 23.4031 14.2703C21.6498 16.4126 17.6588 20.5834 13 20.5834C8.34111 20.5834 4.35018 16.4126 2.59684 14.2703C2.31992 13.922 2.16663 13.4694 2.16663 13.0001C2.16663 12.5308 2.31992 12.0782 2.59684 11.7299C4.35018 9.58759 8.34111 5.41675 13 5.41675C17.6588 5.41675 21.6498 9.58759 23.4031 11.7299Z" stroke="#252C32" stroke-width="1.5" stroke-linecap="round" stroke-linejoin="round"/>
<path d="M13.0005 16.3703C14.845 16.3703 16.3402 14.8613 16.3402 12.9999C16.3402 11.1386 14.845 9.62961 13.0005 9.62961C11.1561 9.62961 9.66083 11.1386 9.66083 12.9999C9.66083 14.8613 11.1561 16.3703 13.0005 16.3703Z" stroke="#252C32" stroke-width="1.5" stroke-linecap="round" stroke-linejoin="round"/>
</svg>
