<svg width="15" height="18" viewBox="0 0 15 18" fill="none" xmlns="http://www.w3.org/2000/svg">
<mask id="mask0_2411_41" style="mask-type:luminance" maskUnits="userSpaceOnUse" x="0" y="0" width="15" height="18">
<path fill-rule="evenodd" clip-rule="evenodd" d="M0.446289 0.346924H14.8835V17.6677H0.446289V0.346924Z" fill="white"/>
</mask>
<g mask="url(#mask0_2411_41)">
<path fill-rule="evenodd" clip-rule="evenodd" d="M7.66485 1.62332C6.94327 1.62332 2.3909 3.22644 1.86588 3.66465C1.71102 3.82037 1.70506 4.09096 1.73825 5.90255C1.75356 6.77559 1.77484 7.96176 1.77484 9.60402C1.77484 14.0296 6.64375 15.9944 7.66399 16.356C8.68339 15.9927 13.5549 14.0168 13.5549 9.60402C13.5549 7.96006 13.5761 6.77303 13.5923 5.9C13.6246 4.09011 13.6187 3.81952 13.4544 3.65615C12.9396 3.22644 8.38642 1.62332 7.66485 1.62332M7.66492 17.6681C7.60281 17.6681 7.54069 17.6596 7.48028 17.6408C7.19522 17.5549 0.498547 15.46 0.498547 9.60399C0.498547 7.97279 0.477275 6.79258 0.461958 5.92635C0.422816 3.76248 0.414307 3.3115 0.973356 2.7533C1.64132 2.08363 6.69999 0.346924 7.66492 0.346924C8.62901 0.346924 13.6877 2.08363 14.3573 2.7533C14.9155 3.3115 14.907 3.76248 14.8679 5.9238C14.8526 6.79003 14.8313 7.97024 14.8313 9.60399C14.8313 15.46 8.13463 17.5549 7.84957 17.6408C7.78916 17.6596 7.72704 17.6681 7.66492 17.6681" fill="#1376F8"/>
</g>
<path fill-rule="evenodd" clip-rule="evenodd" d="M7.06392 11.0005V11.0005C6.89459 11.0005 6.73206 10.9332 6.61209 10.8133L5.00216 9.20164C4.7537 8.95233 4.7537 8.54729 5.00301 8.29883C5.25148 8.04951 5.65651 8.04951 5.90583 8.29883L7.06392 9.45862L9.92979 6.59275C10.1791 6.34343 10.5824 6.34343 10.8318 6.59275C11.0811 6.84207 11.0811 7.24625 10.8318 7.49557L7.5149 10.8133C7.39578 10.9332 7.23325 11.0005 7.06392 11.0005" fill="#1376F8"/>
</svg>
