<svg width="20" height="21" viewBox="0 0 20 21" fill="none" xmlns="http://www.w3.org/2000/svg">
<path fill-rule="evenodd" clip-rule="evenodd" d="M6.87305 3.62451L16.248 3.62451C16.4138 3.62451 16.5728 3.69036 16.69 3.80757C16.8072 3.92478 16.873 4.08375 16.873 4.24951V13.6245C16.873 13.9697 16.5932 14.2495 16.248 14.2495C15.9029 14.2495 15.623 13.9697 15.623 13.6245V5.7584L4.18999 17.1915C3.94591 17.4355 3.55018 17.4355 3.30611 17.1915C3.06203 16.9474 3.06203 16.5516 3.30611 16.3076L14.7392 4.87451L6.87305 4.87451C6.52787 4.87451 6.24805 4.59469 6.24805 4.24951C6.24805 3.90433 6.52787 3.62451 6.87305 3.62451Z" fill="#28E8F7"/>
</svg>
